<?xml version="1.0" encoding="UTF-8"?>
<svg width="96px" height="96px" viewBox="0 0 96 96" version="1.1" xmlns="http://www.w3.org/2000/svg" xmlns:xlink="http://www.w3.org/1999/xlink">
    <title>x-in-circle</title>
    <g id="Page-1" stroke="none" stroke-width="1" fill="none" fill-rule="evenodd">
        <g id="x-in-circle" fill="#A07954" fill-rule="nonzero">
            <path d="M47.94,0.599961803 C67.1224089,0.575733799 84.4283659,12.1154697 91.7803699,29.8330721 C99.1323739,47.5506746 95.0808457,67.9528013 81.5168235,81.5168235 C67.9528013,95.0808457 47.5506746,99.1323739 29.8330721,91.7803699 C12.1154697,84.4283659 0.575733799,67.1224089 0.599961803,47.94 C0.655006167,21.8176582 21.8176582,0.655006167 47.94,0.599961803 Z M63.76,25.63 L47.94,41.33 L32.24,25.63 L25.63,32.24 L41.33,47.94 L25.63,63.76 L32.24,70.37 L47.94,54.67 L63.76,70.37 L70.37,63.76 L54.67,47.94 L70.37,32.24 L63.76,25.63 Z" id="Shape"></path>
        </g>
    </g>
</svg>